# Blender v2.78 (sub 0) OBJ File: 'Tutorial.blend'
# www.blender.org
mtllib grave.mtl
o Cube
v 1.428707 -0.241604 -0.773854
v 1.428707 -0.241604 0.773854
v -1.428707 -0.241604 0.773854
v -1.428707 -0.241604 -0.773854
v 1.428708 0.472390 -0.773854
v 1.428706 0.472390 0.773855
v -1.428707 0.472390 0.773854
v -1.428707 0.472390 -0.773854
v 1.183364 0.473593 -0.640965
v 1.183364 0.473593 0.640965
v -1.183364 0.473593 0.640965
v -1.183363 0.473593 -0.640965
v 1.183364 0.825235 -0.640964
v 1.183363 0.825235 0.640965
v -1.183364 0.825235 0.640965
v -1.183364 0.825235 -0.640965
v 1.034008 0.799786 -0.311136
v 1.034008 0.799786 0.311136
v -1.034008 0.799786 0.311136
v -1.034008 0.799786 -0.311136
v 1.034009 2.553457 -0.311136
v 1.034007 2.553457 0.311136
v -1.034009 2.553457 0.311136
v -1.034008 2.553457 -0.311136
v 0.000000 0.799786 -0.311136
v -0.000000 0.799786 0.311136
v 0.000000 2.553457 -0.311136
v -0.000001 2.643480 0.311136
v 0.000000 0.473593 -0.640965
v -0.000000 0.473593 0.640965
v 0.000000 0.825235 -0.640965
v -0.000001 0.825235 0.640965
v 0.000000 -0.241604 -0.773854
v 0.000000 -0.241604 0.773854
v 0.000000 0.472390 -0.773854
v -0.000001 0.472390 0.773854
vt 0.5750 0.5766
vt 0.7915 0.5766
vt 0.7915 0.6824
vt 0.5750 0.6824
vt 0.4021 0.8847
vt 0.4021 0.9905
vt 0.1859 0.9905
vt 0.1859 0.8847
vt 0.7915 0.0095
vt 0.7915 0.2211
vt 0.5750 0.2211
vt 0.5750 0.0095
vt 0.7915 0.3459
vt 0.5750 0.3459
vt 0.5750 0.2402
vt 0.7915 0.2402
vt 0.7915 0.9130
vt 0.5750 0.9130
vt 0.5750 0.7014
vt 0.7915 0.7014
vt 0.1859 0.6541
vt 0.4023 0.6541
vt 0.4023 0.7598
vt 0.1859 0.7598
vt 0.8110 0.0971
vt 0.9903 0.0971
vt 0.9903 0.1848
vt 0.8110 0.1848
vt 0.9900 0.2914
vt 0.9900 0.3791
vt 0.8110 0.3791
vt 0.8110 0.2914
vt 0.5556 0.7235
vt 0.4490 0.7235
vt 0.4490 0.5483
vt 0.5556 0.5483
vt 0.9176 0.4857
vt 0.8110 0.4857
vt 0.8110 0.3981
vt 0.9176 0.3981
vt 0.9176 0.7677
vt 0.8110 0.7677
vt 0.8110 0.5924
vt 0.9176 0.5924
vt 0.0097 0.6626
vt 0.1163 0.6626
vt 0.1163 0.7502
vt 0.0097 0.7502
vt 0.0968 0.8458
vt 0.0097 0.8458
vt 0.0097 0.7692
vt 0.0968 0.7692
vt 0.5373 0.8191
vt 0.5373 0.8957
vt 0.4503 0.8957
vt 0.4490 0.8191
vt 0.4685 0.5292
vt 0.4685 0.0095
vt 0.5556 0.0095
vt 0.5556 0.5292
vt 0.0881 0.5559
vt 0.0881 0.0095
vt 0.1664 0.0362
vt 0.1664 0.5559
vt 0.3620 0.5292
vt 0.3620 0.0095
vt 0.4490 0.0095
vt 0.4490 0.5292
vt 0.2642 0.0095
vt 0.2642 0.5292
vt 0.1859 0.5292
vt 0.1859 0.0095
vt 0.3425 0.0095
vt 0.3425 0.5292
vt 0.0097 0.5559
vt 0.0097 0.0362
vt 0.5373 0.7426
vt 0.4503 0.7426
vt 0.0968 0.9224
vt 0.0097 0.9224
vt 0.0097 0.5749
vt 0.1163 0.5749
vt 0.9176 0.5734
vt 0.8110 0.5734
vt 0.9900 0.2038
vt 0.8110 0.2038
vt 0.8110 0.0095
vt 0.9903 0.0095
vt 0.1859 0.5483
vt 0.4023 0.5483
vt 0.7915 0.4517
vt 0.5750 0.4517
vt 0.4021 0.7789
vt 0.1859 0.7789
vt 0.5750 0.4708
vt 0.7915 0.4708
vn 0.0000 -1.0000 -0.0000
vn 0.0000 1.0000 -0.0000
vn 1.0000 0.0000 0.0000
vn -0.0000 -0.0000 1.0000
vn -1.0000 -0.0000 -0.0000
vn 0.0000 0.0000 -1.0000
vn -0.0434 0.9965 -0.0721
vn 0.0434 0.9965 -0.0721
usemtl Material
s off
f 33/1/1 34/2/1 3/3/1 4/4/1
f 35/5/2 8/6/2 7/7/2 36/8/2
f 1/9/3 5/10/3 6/11/3 2/12/3
f 34/13/4 36/14/4 7/15/4 3/16/4
f 3/17/5 7/18/5 8/19/5 4/20/5
f 35/21/6 33/22/6 4/23/6 8/24/6
f 29/25/1 30/26/1 11/27/1 12/28/1
f 31/29/2 16/30/2 15/31/2 32/32/2
f 9/33/3 13/34/3 14/35/3 10/36/3
f 30/37/4 32/38/4 15/39/4 11/40/4
f 11/41/5 15/42/5 16/43/5 12/44/5
f 31/45/6 29/46/6 12/47/6 16/48/6
f 25/49/1 26/50/1 19/51/1 20/52/1
f 27/53/7 24/54/7 23/55/7 28/56/7
f 17/57/3 21/58/3 22/59/3 18/60/3
f 26/61/4 28/62/4 23/63/4 19/64/4
f 19/65/5 23/66/5 24/67/5 20/68/5
f 27/69/6 25/70/6 20/71/6 24/72/6
f 21/73/6 17/74/6 25/70/6 27/69/6
f 18/75/4 22/76/4 28/62/4 26/61/4
f 21/77/8 27/53/8 28/56/8 22/78/8
f 17/79/1 18/80/1 26/50/1 25/49/1
f 13/81/6 9/82/6 29/46/6 31/45/6
f 10/83/4 14/84/4 32/38/4 30/37/4
f 13/85/2 31/29/2 32/32/2 14/86/2
f 9/87/1 10/88/1 30/26/1 29/25/1
f 5/89/6 1/90/6 33/22/6 35/21/6
f 2/91/4 6/92/4 36/14/4 34/13/4
f 5/93/2 35/5/2 36/8/2 6/94/2
f 1/95/1 2/96/1 34/2/1 33/1/1
